<?xml version="1.0" encoding="utf-8"?>
<!-- Generator: Adobe Illustrator 21.1.0, SVG Export Plug-In . SVG Version: 6.00 Build 0)  -->
<svg version="1.1" id="Layer_1" xmlns="http://www.w3.org/2000/svg" xmlns:xlink="http://www.w3.org/1999/xlink" x="0px" y="0px"
	 viewBox="0 0 723 493" style="enable-background:new 0 0 723 493;" xml:space="preserve">
<style type="text/css">
	.st0{clip-path:url(#SVGID_2_);}
	.st1{fill:none;stroke:#EBEBEB;stroke-width:0.5335;stroke-linejoin:round;stroke-miterlimit:10;}
	.st2{clip-path:url(#SVGID_4_);}
	.st3{clip-path:url(#SVGID_6_);}
	.st4{clip-path:url(#SVGID_8_);}
	.st5{clip-path:url(#SVGID_10_);}
	.st6{clip-path:url(#SVGID_12_);}
	.st7{fill:none;stroke:#EBEBEB;stroke-width:1.067;stroke-linejoin:round;stroke-miterlimit:10;}
	.st8{clip-path:url(#SVGID_14_);}
	.st9{clip-path:url(#SVGID_16_);}
	.st10{fill:#D98484;}
	.st11{fill:#A82272;}
	.st12{fill:#539DA6;}
	.st13{fill:#198BCA;}
	.st14{clip-path:url(#SVGID_18_);}
	.st15{fill:none;stroke:#333333;stroke-width:1.067;stroke-linecap:round;stroke-linejoin:round;stroke-miterlimit:10;}
	.st16{fill:none;stroke:#333333;stroke-width:1.067;stroke-linejoin:round;stroke-miterlimit:10;}
	.st17{fill:none;}
	.st18{font-family:'GothamLight';}
	.st19{font-size:14px;}
	.st20{font-family:'GothamMedium';}
	.st21{font-size:16px;}
	.st22{clip-path:url(#SVGID_20_);}
	.st23{font-family:'Gotham-Light';}
</style>
<g>
	<g>
		<g>
			<g>
				<defs>
					<rect id="SVGID_1_" x="66.6" y="420" width="651.4" height="1"/>
				</defs>
				<clipPath id="SVGID_2_">
					<use xlink:href="#SVGID_1_"  style="overflow:visible;"/>
				</clipPath>
				<g class="st0">
					<path class="st1" d="M66.6,420.3h650.9"/>
				</g>
			</g>
		</g>
	</g>
</g>
<g>
	<g>
		<g>
			<g>
				<defs>
					<rect id="SVGID_3_" x="66.6" y="334" width="651.4" height="2"/>
				</defs>
				<clipPath id="SVGID_4_">
					<use xlink:href="#SVGID_3_"  style="overflow:visible;"/>
				</clipPath>
				<g class="st2">
					<path class="st1" d="M66.6,334.9h650.9"/>
				</g>
			</g>
		</g>
	</g>
</g>
<g>
	<g>
		<g>
			<g>
				<defs>
					<rect id="SVGID_5_" x="66.6" y="249" width="651.4" height="1"/>
				</defs>
				<clipPath id="SVGID_6_">
					<use xlink:href="#SVGID_5_"  style="overflow:visible;"/>
				</clipPath>
				<g class="st3">
					<path class="st1" d="M66.6,249.6h650.9"/>
				</g>
			</g>
		</g>
	</g>
</g>
<g>
	<g>
		<g>
			<g>
				<defs>
					<rect id="SVGID_7_" x="66.6" y="163" width="651.4" height="2"/>
				</defs>
				<clipPath id="SVGID_8_">
					<use xlink:href="#SVGID_7_"  style="overflow:visible;"/>
				</clipPath>
				<g class="st4">
					<path class="st1" d="M66.6,164.2h650.9"/>
				</g>
			</g>
		</g>
	</g>
</g>
<g>
	<g>
		<g>
			<g>
				<defs>
					<rect id="SVGID_9_" x="66.6" y="78" width="651.4" height="2"/>
				</defs>
				<clipPath id="SVGID_10_">
					<use xlink:href="#SVGID_9_"  style="overflow:visible;"/>
				</clipPath>
				<g class="st5">
					<path class="st1" d="M66.6,78.9h650.9"/>
				</g>
			</g>
		</g>
	</g>
</g>
<g>
	<g>
		<g>
			<g>
				<defs>
					<rect id="SVGID_11_" x="66.6" y="377" width="651.9" height="2"/>
				</defs>
				<clipPath id="SVGID_12_">
					<use xlink:href="#SVGID_11_"  style="overflow:visible;"/>
				</clipPath>
				<g class="st6">
					<path class="st7" d="M66.6,377.6h650.9"/>
				</g>
			</g>
		</g>
	</g>
</g>
<g>
	<g>
		<g>
			<g>
				<defs>
					<rect id="SVGID_13_" x="66.6" y="291" width="651.9" height="2"/>
				</defs>
				<clipPath id="SVGID_14_">
					<use xlink:href="#SVGID_13_"  style="overflow:visible;"/>
				</clipPath>
				<g class="st8">
					<path class="st7" d="M66.6,292.2h650.9"/>
				</g>
			</g>
		</g>
	</g>
</g>
<g>
	<g>
		<g>
			<g>
				<defs>
					<rect id="SVGID_15_" x="66.6" y="120" width="651.9" height="3"/>
				</defs>
				<clipPath id="SVGID_16_">
					<use xlink:href="#SVGID_15_"  style="overflow:visible;"/>
				</clipPath>
				<g class="st9">
					<path class="st7" d="M66.6,121.5h650.9"/>
				</g>
			</g>
		</g>
	</g>
</g>
<path class="st10" d="M118.1,220.5h4.9v-13.7h-4.9V220.5z"/>
<path class="st10" d="M145.6,225.7h4.9v-18.8h-4.9V225.7z"/>
<path class="st10" d="M151,242.7h4.9v-35.8H151V242.7z"/>
<path class="st10" d="M156.5,246.1h4.9v-39.3h-4.9V246.1z"/>
<path class="st10" d="M184,210.3h4.9v-3.4H184V210.3z"/>
<path class="st10" d="M189.4,234.2h4.9v-27.3h-4.9V234.2z"/>
<path class="st10" d="M216.9,239.3h4.9v-32.4h-4.9V239.3z"/>
<path class="st10" d="M227.8,302.5h4.9v-95.6h-4.9V302.5z"/>
<path class="st10" d="M321.1,222.2h4.9v-15.4h-4.9V222.2z"/>
<path class="st10" d="M326.5,239.3h4.9v-32.4h-4.9V239.3z"/>
<path class="st10" d="M337.5,271.8h4.9v-64.9h-4.9V271.8z"/>
<path class="st10" d="M354,282h4.9v-75.1H354V282z"/>
<path class="st10" d="M359.4,263.2h4.9v-56.3h-4.9V263.2z"/>
<path class="st10" d="M381.4,212h4.9v-5.1h-4.9V212z"/>
<path class="st11" d="M392.3,208.6h4.9v-1.7h-4.9V208.6z"/>
<path class="st10" d="M397.8,295.6h4.9v-88.8h-4.9V295.6z"/>
<path class="st10" d="M403.3,227.4h4.9v-20.5h-4.9V227.4z"/>
<path class="st10" d="M419.8,212h4.9v-5.1h-4.9V212z"/>
<path class="st10" d="M430.7,222.2h4.9v-15.4h-4.9V222.2z"/>
<path class="st10" d="M436.2,230.8h4.9v-23.9h-4.9V230.8z"/>
<path class="st10" d="M441.7,413.4h4.9V206.9h-4.9V413.4z"/>
<path class="st10" d="M447.2,224h4.9v-17.1h-4.9V224z"/>
<path class="st10" d="M452.7,278.6h4.9v-71.7h-4.9V278.6z"/>
<path class="st10" d="M480.1,215.4h4.9v-8.5h-4.9V215.4z"/>
<path class="st10" d="M485.6,227.4h4.9v-20.5h-4.9V227.4z"/>
<path class="st10" d="M491.1,333.2h4.9V206.9h-4.9V333.2z"/>
<path class="st10" d="M496.5,241h4.9v-34.1h-4.9V241z"/>
<path class="st10" d="M502,285.4h4.9v-78.5H502V285.4z"/>
<path class="st10" d="M513,316.1h4.9V206.9H513V316.1z"/>
<path class="st10" d="M518.5,225.7h4.9v-18.8h-4.9V225.7z"/>
<path class="st10" d="M529.4,258.1h4.9v-51.2h-4.9V258.1z"/>
<path class="st10" d="M534.9,217.1h4.9v-10.2h-4.9V217.1z"/>
<path class="st11" d="M540.4,208.6h4.9v-1.7h-4.9V208.6z"/>
<path class="st10" d="M556.9,212h4.9v-5.1h-4.9V212z"/>
<path class="st10" d="M562.4,423.7h4.9V206.9h-4.9V423.7z"/>
<path class="st10" d="M567.8,215.4h4.9v-8.5h-4.9V215.4z"/>
<path class="st10" d="M573.3,222.2h4.9v-15.4h-4.9V222.2z"/>
<path class="st10" d="M611.7,215.4h4.9v-8.5h-4.9V215.4z"/>
<path class="st10" d="M617.2,239.3h4.9v-32.4h-4.9V239.3z"/>
<path class="st10" d="M622.7,239.3h4.9v-32.4h-4.9V239.3z"/>
<path class="st10" d="M650.1,229.1h4.9v-22.2h-4.9V229.1z"/>
<path class="st11" d="M661.1,208.6h4.9v-1.7h-4.9V208.6z"/>
<path class="st10" d="M666.5,230.8h4.9v-23.9h-4.9V230.8z"/>
<path class="st10" d="M683,225.7h4.9v-18.8H683V225.7z"/>
<path class="st12" d="M96.2,206.9h4.9V72h-4.9V206.9z"/>
<path class="st12" d="M101.7,206.9h4.9v-18.8h-4.9V206.9z"/>
<path class="st12" d="M107.2,206.9h4.9v-41h-4.9V206.9z"/>
<path class="st12" d="M112.7,206.9h4.9V73.7h-4.9V206.9z"/>
<path class="st12" d="M123.6,206.9h4.9v-13.7h-4.9V206.9z"/>
<path class="st12" d="M129.1,206.9h4.9v-8.5h-4.9V206.9z"/>
<path class="st12" d="M134.6,206.9h4.9v-61.5h-4.9V206.9z"/>
<path class="st12" d="M140.1,206.9h4.9v-68.3h-4.9V206.9z"/>
<path class="st12" d="M162,206.9h4.9v-29H162V206.9z"/>
<path class="st12" d="M167.5,206.9h4.9v-10.2h-4.9V206.9z"/>
<path class="st12" d="M173,206.9h4.9V92.5H173V206.9z"/>
<path class="st12" d="M178.5,206.9h4.9v-78.5h-4.9V206.9z"/>
<path class="st12" d="M194.9,206.9h4.9v-51.2h-4.9V206.9z"/>
<path class="st12" d="M200.4,206.9h4.9V154h-4.9V206.9z"/>
<path class="st12" d="M205.9,206.9h4.9v-70h-4.9V206.9z"/>
<path class="st12" d="M211.4,206.9h4.9v-61.5h-4.9V206.9z"/>
<path class="st12" d="M222.3,206.9h4.9v-8.5h-4.9V206.9z"/>
<path class="st12" d="M233.3,206.9h4.9v-20.5h-4.9V206.9z"/>
<path class="st12" d="M238.8,206.9h4.9V154h-4.9V206.9z"/>
<path class="st12" d="M244.3,206.9h4.9V63.5h-4.9V206.9z"/>
<path class="st12" d="M249.8,206.9h4.9v-22.2h-4.9V206.9z"/>
<path class="st12" d="M255.2,206.9h4.9v-44.4h-4.9L255.2,206.9L255.2,206.9z"/>
<path class="st12" d="M260.7,206.9h4.9v-83.6h-4.9V206.9z"/>
<path class="st12" d="M266.2,206.9h4.9V97.6h-4.9V206.9z"/>
<path class="st12" d="M271.7,206.9h4.9V113h-4.9V206.9z"/>
<path class="st12" d="M277.2,206.9h4.9V154h-4.9V206.9L277.2,206.9z"/>
<path class="st12" d="M282.7,206.9h4.9v-71.7h-4.9V206.9z"/>
<path class="st12" d="M288.1,206.9h4.9v-58h-4.9V206.9z"/>
<path class="st12" d="M293.6,206.9h4.9v-3.4h-4.9V206.9z"/>
<path class="st12" d="M299.1,206.9h4.9v-61.5h-4.9V206.9z"/>
<path class="st12" d="M304.6,206.9h4.9v-83.6h-4.9V206.9z"/>
<path class="st12" d="M310.1,206.9h4.9V142h-4.9V206.9z"/>
<path class="st12" d="M315.6,206.9h4.9v-17.1h-4.9V206.9z"/>
<path class="st12" d="M332,206.9h4.9v-66.6H332V206.9z"/>
<path class="st12" d="M343,206.9h4.9v-46.1H343V206.9z"/>
<path class="st12" d="M348.5,206.9h4.9v-3.4h-4.9V206.9z"/>
<path class="st12" d="M364.9,206.9h4.9v-56.3h-4.9V206.9z"/>
<path class="st12" d="M370.4,206.9h4.9v-51.2h-4.9V206.9z"/>
<path class="st12" d="M375.9,206.9h4.9v-17.1h-4.9V206.9z"/>
<path class="st12" d="M386.9,206.9h4.9V183h-4.9V206.9z"/>
<path class="st12" d="M414.3,206.9h4.9v-10.2h-4.9V206.9z"/>
<path class="st12" d="M425.2,206.9h4.9v-37.6h-4.9V206.9z"/>
<path class="st12" d="M458.2,206.9h4.9v-59.7h-4.9V206.9z"/>
<path class="st12" d="M463.6,206.9h4.9v-17.1h-4.9V206.9z"/>
<path class="st12" d="M469.1,206.9h4.9v-76.8h-4.9V206.9z"/>
<path class="st12" d="M474.6,206.9h4.9v-8.5h-4.9V206.9z"/>
<path class="st12" d="M507.5,206.9h4.9V102.8h-4.9L507.5,206.9L507.5,206.9z"/>
<path class="st12" d="M524,206.9h4.9v-44.4H524V206.9z"/>
<path class="st12" d="M545.9,206.9h4.9v-5.1h-4.9V206.9z"/>
<path class="st12" d="M551.4,206.9h4.9v-73.4h-4.9V206.9z"/>
<path class="st12" d="M578.8,206.9h4.9v-20.5h-4.9V206.9z"/>
<path class="st12" d="M584.3,206.9h4.9v-59.7h-4.9V206.9z"/>
<path class="st12" d="M589.8,206.9h4.9v-47.8h-4.9V206.9z"/>
<path class="st12" d="M595.3,206.9h4.9v-8.5h-4.9V206.9z"/>
<path class="st12" d="M600.7,206.9h4.9v-80.2h-4.9V206.9z"/>
<path class="st12" d="M606.2,206.9h4.9V183h-4.9V206.9z"/>
<path class="st12" d="M628.2,206.9h4.9v-6.8h-4.9V206.9z"/>
<path class="st12" d="M633.6,206.9h4.9v-47.8h-4.9V206.9z"/>
<path class="st12" d="M639.1,206.9h4.9v-30.7h-4.9V206.9z"/>
<path class="st12" d="M644.6,206.9h4.9v-3.4h-4.9V206.9z"/>
<path class="st12" d="M655.6,206.9h4.9v-71.7h-4.9V206.9z"/>
<path class="st12" d="M672,206.9h4.9v-47.8H672V206.9z"/>
<path class="st13" d="M677.5,206.9h4.9v-1.7h-4.9V206.9z"/>
<g>
	<g>
		<g>
			<g>
				<defs>
					<rect id="SVGID_17_" x="66.6" y="45.5" width="651.9" height="397.2"/>
				</defs>
				<clipPath id="SVGID_18_">
					<use xlink:href="#SVGID_17_"  style="overflow:visible;"/>
				</clipPath>
				<g class="st14">
					<path class="st15" d="M66.6,441.7h650.9V45.5H66.6V441.7z"/>
				</g>
			</g>
		</g>
	</g>
</g>
<path class="st16" d="M63.9,377.6h2.7"/>
<path class="st16" d="M63.9,292.2h2.7"/>
<path class="st16" d="M63.9,206.9h2.7"/>
<path class="st16" d="M63.9,121.5h2.7"/>
<path class="st16" d="M98.7,444.4v-2.7"/>
<path class="st16" d="M263.2,444.4v-2.7"/>
<path class="st16" d="M427.7,444.4v-2.7"/>
<path class="st16" d="M592.2,444.4v-2.7"/>
<rect x="36" y="115" class="st17" width="24" height="32"/>
<text transform="matrix(1 0 0 1 41.5903 125.2197)" class="st18 st19">50</text>
<rect x="36" y="202" class="st17" width="24" height="32"/>
<text transform="matrix(1 0 0 1 50.0601 212.2197)" class="st18 st19">0</text>
<rect x="22" y="288" class="st17" width="38" height="32"/>
<text transform="matrix(1 0 0 1 34.1982 298.2197)" class="st18 st19">–50</text>
<rect x="13" y="373" class="st17" width="47" height="32"/>
<text transform="matrix(1 0 0 1 28.0386 383.2197)" class="st18 st19">–100</text>
<rect x="23" y="17" class="st17" width="692" height="22"/>
<text transform="matrix(1 0 0 1 154 28.6797)" class="st20 st21">POSITIVE/NEGATIVE SENTIMENT PROGRESSION</text>
<g>
	<g>
		<g>
			<g>
				<defs>
					<rect id="SVGID_19_" x="67.1" y="205.9" width="651.9" height="2"/>
				</defs>
				<clipPath id="SVGID_20_">
					<use xlink:href="#SVGID_19_"  style="overflow:visible;"/>
				</clipPath>
				<g class="st22">
					<path class="st7" d="M67.1,207.1H718"/>
				</g>
			</g>
		</g>
	</g>
</g>
<rect x="271" y="466" class="st17" width="166" height="20"/>
<text transform="matrix(1 0 0 1 331.3345 476.2197)" class="st23 st19">INDEX</text>
<rect x="18" y="150.8" class="st17" width="20" height="166"/>
<text transform="matrix(4.489659e-11 -1 1 4.489659e-11 28.2197 303.2324)" class="st23 st19">SENTIMENT SCORE</text>
<text transform="matrix(1 0 0 1 93.6206 460.2197)" class="st18 st19">0</text>
<text transform="matrix(1 0 0 1 254.5903 460.2197)" class="st18 st19">30</text>
<text transform="matrix(1 0 0 1 419.5903 461.2197)" class="st18 st19">60</text>
<text transform="matrix(1 0 0 1 582.5903 461.2197)" class="st18 st19">90</text>
</svg>
